{"title":"Elysium 2013 NEW SOURCE READNFO CAM XViD UNiQUE","uid":8870860,"size":1476988928,"categoryP":"video","categoryS":"movies","magnet":"?xt=urn:btih:a64a7a46983bdb15ba3f4293e4862af3c27350d4&amp;dn=Elysium+2013+NEW+SOURCE+READNFO+CAM+XViD+UNiQUE&amp;tr=udp%3A%2F%2Ftracker.openbittorrent.com%3A80&amp;tr=udp%3A%2F%2Fopen.demonii.com%3A1337&amp;tr=udp%3A%2F%2Ftracker.coppersurfer.tk%3A6969&amp;tr=udp%3A%2F%2Fexodus.desync.com%3A6969","seeders":1,"leechers":0,"uploader":"TeX","files":3,"time":1378059282,"description":"[img]http://i1-news.softpedia-static.com/images/news-700/First-Elysium-Trailer-Matt-Damon-Goes-to-the-End-of-the-Earth.jpg[/img]\n\n\nFormat : AVI\nFormat/Info : Audio Video Interleave\nFile size : 1.36 GiB\nDuration : 1h 41mn\nOverall bit rate : 1 919 Kbps\nWriting application : VirtualDubMod 1.5.10.2 (build 2540/release)\nWriting library : VirtualDubMod build 2540/release\n\nVideo\nID : 0\nFormat : MPEG-4 Visual\nFormat profile : Advanced Simple@L5\nFormat settings, BVOP : 2\nFormat settings, QPel : No\nFormat settings, GMC : No warppoints\nFormat settings, Matrix : Default (H.263)\nMuxing mode : Packed bitstream\nCodec ID : XVID\nCodec ID/Hint : XviD\nDuration : 1h 41mn\nBit rate : 1 781 Kbps\nWidth : 640 pixels\nHeight : 338 pixels\nDisplay aspect ratio : 1.893\nFrame rate : 25.000 fps\nColor space : YUV\nChroma subsampling : 4:2:0\nBit depth : 8 bits\nScan type : Progressive\nCompression mode : Lossy\nBits/(Pixel*Frame) : 0.329\nStream size : 1.27 GiB (93%)\nWriting library : XviD 64\n\nAudio\nID : 1\nFormat : MPEG Audio\nFormat version : Version 1\nFormat profile : Layer 3\nMode : Joint stereo\nMode extension : MS Stereo\nCodec ID : 55\nCodec ID/Hint : MP3\nDuration : 1h 41mn\nBit rate mode : Constant\nBit rate : 128 Kbps\nChannel(s) : 2 channels\nSampling rate : 44.1 KHz\nCompression mode : Lossy\nStream size : 92.9 MiB (7%)\nAlignment : Aligned on interleaves\nInterleave, duration : 40 ms (1.00 video frame)\nInterleave, preload duration : 522 ms\n\n\n\n\n &lt;a href=&quot;\nhttp://www.imdb.com/title/tt1535108/&quot; rel=&quot;nofollow&quot; target=&quot;_NEW&quot;&gt;\nhttp://www.imdb.com/title/tt1535108/&lt;/a&gt;\n\n\n\n","torrent":{"xt":"urn:btih:a64a7a46983bdb15ba3f4293e4862af3c27350d4","amp;dn":"Elysium+2013+NEW+SOURCE+READNFO+CAM+XViD+UNiQUE","amp;tr":["udp%3A%2F%2Ftracker.openbittorrent.com%3A80","udp%3A%2F%2Fopen.demonii.com%3A1337","udp%3A%2F%2Ftracker.coppersurfer.tk%3A6969","udp%3A%2F%2Fexodus.desync.com%3A6969"],"infoHash":"a64a7a46983bdb15ba3f4293e4862af3c27350d4","infoHashBuffer":{"type":"Buffer","data":[166,74,122,70,152,59,219,21,186,63,66,147,228,134,42,243,194,115,80,212]},"announce":[],"urlList":[]}}